<svg width="39" height="54" viewBox="0 0 39 54" fill="none" xmlns="http://www.w3.org/2000/svg">
<path d="M19.2878 0.834259H1.99523C1.26059 0.834259 0.665039 1.58126 0.665039 2.50274V10.8451C0.665039 11.7666 1.26059 12.5136 1.99523 12.5136H19.2878C20.0224 12.5136 20.6179 11.7666 20.6179 10.8451V2.50274C20.6179 1.58126 20.0224 0.834259 19.2878 0.834259Z" fill="#FF6C9D"/>
<path d="M27.934 20.856H10.6415C9.90683 20.856 9.31128 21.603 9.31128 22.5245V30.8669C9.31128 31.7884 9.90683 32.5354 10.6415 32.5354H27.934C28.6686 32.5354 29.2642 31.7884 29.2642 30.8669V22.5245C29.2642 21.603 28.6686 20.856 27.934 20.856Z" fill="#ABC178"/>
<path d="M36.5802 40.8777H19.2877C18.5531 40.8777 17.9575 41.6248 17.9575 42.5462V50.8886C17.9575 51.8101 18.5531 52.5571 19.2877 52.5571H36.5802C37.3149 52.5571 37.9104 51.8101 37.9104 50.8886V42.5462C37.9104 41.6248 37.3149 40.8777 36.5802 40.8777Z" fill="#FFAABF" fill-opacity="0.98"/>
<path d="M5.79102 24.4374C5.53122 24.1115 5.11033 24.1115 4.85053 24.4374C4.59073 24.7632 4.59073 25.2912 4.85053 25.617L5.04538 25.8614H3.32548C2.95851 25.8614 2.66039 25.4875 2.66039 25.0272V13.3478H19.2878C20.3881 13.3478 21.2831 12.2252 21.2831 10.8451V2.50272C21.2831 1.12264 20.3881 0 19.2878 0H1.99529C0.895023 0 0 1.12264 0 2.50272V10.8451C0 11.9313 0.557684 12.8486 1.33019 13.1941V25.0272C1.33019 26.4073 2.22522 27.5299 3.32548 27.5299H5.04538L4.85053 27.7743C4.59073 28.1002 4.59073 28.6281 4.85053 28.954C4.98043 29.1169 5.1506 29.1984 5.32078 29.1984C5.49095 29.1984 5.66112 29.1169 5.79102 28.954L7.12121 27.2855C7.38102 26.9596 7.38102 26.4317 7.12121 26.1058L5.79102 24.4374ZM1.33019 2.50272C1.33019 2.04242 1.62832 1.66848 1.99529 1.66848H19.2878C19.6548 1.66848 19.9529 2.04242 19.9529 2.50272V10.8451C19.9529 11.3054 19.6548 11.6794 19.2878 11.6794H1.99529C1.62832 11.6794 1.33019 11.3054 1.33019 10.8451V2.50272Z" fill="black"/>
<path d="M3.99054 5.83971H17.2925C17.6601 5.83971 17.9576 5.46659 17.9576 5.00547C17.9576 4.54436 17.6601 4.17123 17.2925 4.17123H3.99054C3.62291 4.17123 3.32544 4.54436 3.32544 5.00547C3.32544 5.46659 3.62291 5.83971 3.99054 5.83971Z" fill="black"/>
<path d="M3.99054 9.17666H9.31131C9.67893 9.17666 9.97641 8.80353 9.97641 8.34242C9.97641 7.88131 9.67893 7.50818 9.31131 7.50818H3.99054C3.62291 7.50818 3.32544 7.88131 3.32544 8.34242C3.32544 8.80353 3.62291 9.17666 3.99054 9.17666Z" fill="black"/>
<path d="M12.6368 25.8615H25.9387C26.3063 25.8615 26.6038 25.4883 26.6038 25.0272C26.6038 24.5661 26.3063 24.193 25.9387 24.193H12.6368C12.2692 24.193 11.9717 24.5661 11.9717 25.0272C11.9717 25.4883 12.2692 25.8615 12.6368 25.8615Z" fill="black"/>
<path d="M12.6368 29.1984H17.9576C18.3252 29.1984 18.6226 28.8253 18.6226 28.3642C18.6226 27.9031 18.3252 27.5299 17.9576 27.5299H12.6368C12.2692 27.5299 11.9717 27.9031 11.9717 28.3642C11.9717 28.8253 12.2692 29.1984 12.6368 29.1984Z" fill="black"/>
<path d="M36.5803 40.0435H19.2878C18.1875 40.0435 17.2925 41.1662 17.2925 42.5462V50.8886C17.2925 52.2687 18.1875 53.3914 19.2878 53.3914H36.5803C37.6806 53.3914 38.5756 52.2687 38.5756 50.8886V42.5462C38.5756 41.1662 37.6806 40.0435 36.5803 40.0435ZM37.2454 50.8886C37.2454 51.3489 36.9473 51.7229 36.5803 51.7229H19.2878C18.9208 51.7229 18.6227 51.3489 18.6227 50.8886V42.5462C18.6227 42.0859 18.9208 41.712 19.2878 41.712H36.5803C36.9473 41.712 37.2454 42.0859 37.2454 42.5462V50.8886Z" fill="black"/>
<path d="M34.585 44.2148H21.283C20.9154 44.2148 20.6179 44.5879 20.6179 45.049C20.6179 45.5101 20.9154 45.8832 21.283 45.8832H34.585C34.9526 45.8832 35.2501 45.5101 35.2501 45.049C35.2501 44.5879 34.9526 44.2148 34.585 44.2148Z" fill="black"/>
<path d="M26.6038 47.5517H21.283C20.9154 47.5517 20.6179 47.9248 20.6179 48.3859C20.6179 48.847 20.9154 49.2202 21.283 49.2202H26.6038C26.9714 49.2202 27.2689 48.847 27.2689 48.3859C27.2689 47.9248 26.9714 47.5517 26.6038 47.5517Z" fill="black"/>
<path d="M14.4373 44.4591C14.1775 44.1333 13.7566 44.1333 13.4968 44.4591C13.237 44.785 13.237 45.3129 13.4968 45.6388L13.6916 45.8832H11.9717C11.6048 45.8832 11.3066 45.5093 11.3066 45.049V33.3696H27.9341C29.0343 33.3696 29.9293 32.247 29.9293 30.8669V22.5245C29.9293 21.1444 29.0343 20.0218 27.9341 20.0218H10.6415C9.54126 20.0218 8.64624 21.1444 8.64624 22.5245V30.8669C8.64624 31.953 9.20392 32.8703 9.97643 33.2158V45.049C9.97643 46.429 10.8715 47.5517 11.9717 47.5517H13.6916L13.4968 47.7961C13.237 48.122 13.237 48.6499 13.4968 48.9758C13.6267 49.1387 13.7968 49.2202 13.967 49.2202C14.1372 49.2202 14.3074 49.1387 14.4373 48.9758L15.7675 47.3073C16.0273 46.9814 16.0273 46.4535 15.7675 46.1276L14.4373 44.4591ZM9.97643 22.5245C9.97643 22.0642 10.2746 21.6902 10.6415 21.6902H27.9341C28.301 21.6902 28.5991 22.0642 28.5991 22.5245V30.8669C28.5991 31.3272 28.301 31.7011 27.9341 31.7011H10.6415C10.2746 31.7011 9.97643 31.3272 9.97643 30.8669V22.5245Z" fill="black"/>
</svg>
