<svg width="33" height="55" viewBox="0 0 33 55" fill="none" xmlns="http://www.w3.org/2000/svg">
<path d="M16.1647 8.35355C17.3256 8.35355 18.4604 8.68017 19.4256 9.2921C20.3908 9.90403 21.1431 10.7738 21.5874 11.7914C22.0316 12.809 22.1478 13.9288 21.9214 15.009C21.6949 16.0893 21.1359 17.0816 20.315 17.8605C19.4942 18.6393 18.4483 19.1697 17.3098 19.3846C16.1712 19.5995 14.9911 19.4892 13.9186 19.0677C12.8461 18.6462 11.9294 17.9324 11.2845 17.0166C10.6396 16.1007 10.2953 15.024 10.2953 13.9226C10.2971 12.4461 10.916 11.0306 12.0164 9.98653C13.1167 8.94249 14.6086 8.35522 16.1647 8.35355ZM16.1647 0C13.2626 0 10.4256 0.816545 8.01256 2.34638C5.59952 3.87621 3.71878 6.05062 2.60817 8.59464C1.49757 11.1387 1.20698 13.938 1.77316 16.6387C2.33935 19.3395 3.73686 21.8202 5.78899 23.7673C7.84112 25.7144 10.4557 27.0404 13.3021 27.5776C16.1485 28.1148 19.0988 27.8391 21.78 26.7854C24.4613 25.7316 26.753 23.9471 28.3653 21.6575C29.9777 19.368 30.8382 16.6762 30.8382 13.9226C30.8382 10.2301 29.2923 6.68882 26.5405 4.07783C23.7886 1.46684 20.0564 0 16.1647 0Z" fill="#FFAB66"/>
<path d="M16.1645 39.6789C11.1722 39.6816 6.27284 38.3978 1.98964 35.9644C1.05677 35.4314 0.384995 34.5689 0.12183 33.5663C-0.141336 32.5637 0.0256284 31.503 0.586054 30.6171C1.14648 29.7312 2.05455 29.0926 3.11084 28.8415C4.16713 28.5903 5.28529 28.7472 6.21975 29.2777C9.29031 30.9799 12.7891 31.8621 16.3451 31.8307C19.9012 31.7993 23.3821 30.8556 26.4187 29.0995C26.8762 28.8263 27.386 28.6415 27.9189 28.5556C28.4518 28.4697 28.9974 28.4844 29.5243 28.5989C30.0512 28.7134 30.5491 28.9254 30.9895 29.2228C31.4298 29.5202 31.804 29.8971 32.0906 30.332C32.3772 30.7669 32.5705 31.2511 32.6595 31.757C32.7485 32.2629 32.7313 32.7805 32.6091 33.2801C32.4869 33.7796 32.262 34.2514 31.9472 34.6684C31.6325 35.0854 31.2341 35.4393 30.775 35.71C26.394 38.3079 21.3307 39.6833 16.1645 39.6789Z" fill="#FFAB66"/>
<path d="M27.9031 54.5769C27.3633 54.5776 26.8287 54.477 26.33 54.281C25.8312 54.085 25.3783 53.7974 24.9971 53.4348L16.1643 45.0541L7.33151 53.4348C6.95034 53.798 6.49741 54.0864 5.99865 54.2834C5.49988 54.4804 4.96507 54.5821 4.42482 54.5827C3.88458 54.5833 3.34951 54.4829 2.85023 54.287C2.35096 54.0912 1.89729 53.8039 1.51518 53.4415C1.13308 53.0792 0.83004 52.6489 0.623417 52.1752C0.416795 51.7016 0.310642 51.194 0.311036 50.6814C0.31143 50.1688 0.418363 49.6613 0.625714 49.1879C0.833064 48.7146 1.13676 48.2847 1.51942 47.9229L16.1643 34.0275L30.8091 47.9228C31.3836 48.4681 31.7748 49.1627 31.9332 49.9189C32.0917 50.6751 32.0102 51.4588 31.6991 52.1711C31.3881 52.8833 30.8614 53.492 30.1857 53.9203C29.51 54.3485 28.7157 54.577 27.9031 54.5769Z" fill="#FFAB66"/>
</svg>
