<svg width="63" height="78" viewBox="0 0 63 78" fill="none" xmlns="http://www.w3.org/2000/svg">
<g clip-path="url(#clip0_66_980)">
<path d="M26.7681 31.804C25.6167 28.4406 24.622 25.5363 25.2755 20.6897C26.4613 11.9076 38.7388 1.96844 52.1755 2.81849L52.2887 0.0538198C37.4908 -0.864114 24.4275 10.1409 23.0661 20.235C22.3049 25.8736 23.5251 29.436 24.7054 32.8823C25.5945 35.4797 26.5147 38.1642 26.6636 41.9478C26.8992 47.8934 12.3745 57.4137 3.16455 62.017L4.00479 64.5812C6.59314 63.2888 29.2899 51.6575 28.902 41.8123C28.733 37.538 27.6895 34.4913 26.7681 31.804ZM59.4239 51.1695C58.9604 43.4932 55.7041 36.099 51.1808 32.3321C43.2688 25.7437 42.6442 22.2339 44.3158 18.7061C48.1634 10.5874 58.1146 10.4686 58.1146 10.4686V7.70246C58.1146 7.70246 46.8842 7.81167 42.3841 17.3099C39.0711 24.3006 44.1613 29.765 50.0015 34.6283C53.9769 37.939 56.8131 44.5122 57.2277 51.3757C57.5945 57.4553 56.3186 66.6439 48.1555 75.8878L49.6692 77.9281C58.4925 67.9335 59.8283 57.8602 59.4239 51.1695ZM27.6461 70.4313L28.1685 73.1215C28.2174 73.1063 29.3788 72.7578 30.9992 71.8345L30.0612 69.3213C28.6574 70.1217 27.6561 70.4272 27.6461 70.4313ZM35.0846 33.2554C35.9859 35.2295 36.9339 37.3528 37.7208 39.6835L39.788 38.619C38.9533 36.146 37.9709 33.9425 37.0351 31.8966L35.0846 33.2554ZM34.3533 19.4055L32.3084 18.2789C31.8449 19.5618 31.6194 20.846 31.6194 22.2062C31.6194 23.5486 31.8438 24.9488 32.305 26.493L34.4067 25.5337C34.0388 24.3033 33.8599 23.2154 33.8599 22.2062C33.8598 21.2413 34.021 20.3262 34.3533 19.4055ZM34.7155 65.5004L36.2427 67.5243C37.8309 65.6968 39.1022 63.5804 40.0236 61.229L38.0076 60.0236C37.2073 62.0639 36.1004 63.9066 34.7155 65.5004ZM41.5261 45.9899L39.3145 46.4335C39.4234 47.2657 39.5023 48.1118 39.549 48.9509C39.5835 49.5965 39.6012 50.2254 39.6012 50.8364C39.6012 51.7128 39.5656 52.5809 39.4946 53.4159L41.7229 53.7048C41.8018 52.773 41.8418 51.8095 41.8418 50.8363C41.8418 50.1658 41.8229 49.476 41.784 48.764C41.7328 47.8394 41.6462 46.9049 41.5261 45.9899ZM38.801 10.0207C37.9452 10.734 37.1607 11.4501 36.4671 12.1481L37.8798 14.2936C38.5221 13.6494 39.2546 12.9818 40.0548 12.3126L38.801 10.0207Z" fill="#253052"/>
</g>
<defs>
<clipPath id="clip0_66_980">
<rect width="62.6518" height="77.9278" fill="white"/>
</clipPath>
</defs>
</svg>
