<svg width="53" height="50" viewBox="0 0 53 50" fill="none" xmlns="http://www.w3.org/2000/svg">
<path d="M26.3147 0C19.3356 0 12.6423 2.63055 7.70738 7.31295C2.77243 11.9954 0 18.3461 0 24.968C0 31.5899 2.77243 37.9406 7.70738 42.623C12.6423 47.3054 19.3356 49.936 26.3147 49.936C33.2937 49.936 39.987 47.3054 44.9219 42.623C49.8569 37.9406 52.6293 31.5899 52.6293 24.968C52.6293 18.3461 49.8569 11.9954 44.9219 7.31295C39.987 2.63055 33.2937 0 26.3147 0Z" fill="#29B6F6"/>
<path d="M39.4063 13.732L34.4776 37.6089C34.4776 37.6089 34.2658 38.7 32.8395 38.7C32.0816 38.7 31.6909 38.358 31.6909 38.358L21.015 29.9525L15.7916 27.4544L9.0879 25.7629C9.0879 25.7629 7.89453 25.4358 7.89453 24.4995C7.89453 23.7192 9.12211 23.3472 9.12211 23.3472L37.1683 12.7758C37.1683 12.7758 38.0248 12.4824 38.6498 12.4836C39.034 12.4836 39.4721 12.6397 39.4721 13.1078C39.4721 13.4199 39.4063 13.732 39.4063 13.732Z" fill="white"/>
<path d="M24.9991 33.0887L20.4914 37.3008C20.4914 37.3008 20.2953 37.4443 20.0335 37.4506C19.9427 37.4531 19.8454 37.4393 19.7454 37.3969L21.0137 29.9502L24.9991 33.0887Z" fill="#B0BEC5"/>
<path d="M34.0733 17.7221C33.851 17.4474 33.4404 17.3975 33.151 17.606L15.7886 27.4646C15.7886 27.4646 18.5595 34.8202 18.9819 36.0935C19.4055 37.3681 19.745 37.3981 19.745 37.3981L21.0134 29.9514L33.9496 18.596C34.2391 18.3875 34.293 17.9967 34.0733 17.7221Z" fill="#CFD8DC"/>
</svg>
