<svg width="38" height="37" viewBox="0 0 38 37" fill="none" xmlns="http://www.w3.org/2000/svg">
<path d="M19 0.5C15.3411 0.5 11.7643 1.55568 8.72196 3.53355C5.67965 5.51141 3.30846 8.32263 1.90824 11.6117C0.508016 14.9008 0.141654 18.52 0.855481 22.0116C1.56931 25.5033 3.33126 28.7106 5.91853 31.2279C8.5058 33.7453 11.8022 35.4596 15.3908 36.1541C18.9795 36.8487 22.6992 36.4922 26.0796 35.1298C29.4601 33.7674 32.3494 31.4603 34.3822 28.5003C36.415 25.5402 37.5 22.0601 37.5 18.5C37.5 13.7261 35.5509 9.14773 32.0815 5.77208C28.6121 2.39642 23.9065 0.5 19 0.5ZM19 35C15.646 35 12.3672 34.0323 9.57846 32.2192C6.78968 30.4062 4.61609 27.8293 3.33255 24.8143C2.04901 21.7993 1.71318 18.4817 2.36752 15.281C3.02186 12.0803 4.63699 9.1403 7.00865 6.83274C9.38032 4.52517 12.402 2.9537 15.6916 2.31704C18.9812 1.68039 22.3909 2.00714 25.4897 3.25599C28.5884 4.50483 31.2369 6.61968 33.1003 9.33309C34.9637 12.0465 35.9583 15.2366 35.9583 18.5C35.9583 22.8761 34.1717 27.0729 30.9914 30.1673C27.8111 33.2616 23.4976 35 19 35Z" fill="#E75A7C"/>
<path d="M19 18.8075C16.3423 18.8075 13.7935 19.8347 11.9142 21.6632C10.0349 23.4917 8.97918 25.9716 8.97918 28.5575C8.97918 28.7564 9.06039 28.9472 9.20495 29.0878C9.34951 29.2285 9.54557 29.3075 9.75001 29.3075C9.95445 29.3075 10.1505 29.2285 10.2951 29.0878C10.4396 28.9472 10.5208 28.7564 10.5208 28.5575C10.5208 26.3695 11.4142 24.271 13.0043 22.7239C14.5945 21.1767 16.7512 20.3075 19 20.3075C21.2488 20.3075 23.4055 21.1767 24.9957 22.7239C26.5858 24.271 27.4792 26.3695 27.4792 28.5575C27.4792 28.7564 27.5604 28.9472 27.7049 29.0878C27.8495 29.2285 28.0456 29.3075 28.25 29.3075C28.4544 29.3075 28.6505 29.2285 28.7951 29.0878C28.9396 28.9472 29.0208 28.7564 29.0208 28.5575C29.0208 27.2771 28.7616 26.0093 28.258 24.8263C27.7545 23.6434 27.0163 22.5686 26.0858 21.6632C25.1553 20.7578 24.0506 20.0397 22.8348 19.5497C21.619 19.0597 20.316 18.8075 19 18.8075Z" fill="#E75A7C"/>
<path d="M19 17.5325C19.7093 17.514 20.408 17.3596 21.0559 17.0781C21.7038 16.7966 22.2883 16.3935 22.7759 15.8919C23.2635 15.3904 23.6447 14.8001 23.8975 14.155C24.1503 13.5099 24.2699 12.8226 24.2494 12.1325C24.2709 11.4418 24.1521 10.7537 23.8998 10.1077C23.6474 9.46173 23.2664 8.87059 22.7787 8.3682C22.291 7.86581 21.7062 7.46204 21.0577 7.18006C20.4093 6.89808 19.71 6.74344 19 6.725C18.29 6.74344 17.5907 6.89808 16.9423 7.18006C16.2938 7.46204 15.709 7.86581 15.2213 8.3682C14.7336 8.87059 14.3526 9.46173 14.1002 10.1077C13.8479 10.7537 13.7291 11.4418 13.7506 12.1325C13.7301 12.8226 13.8497 13.5099 14.1025 14.155C14.3553 14.8001 14.7365 15.3904 15.2241 15.8919C15.7117 16.3935 16.2962 16.7966 16.9441 17.0781C17.592 17.3596 18.2907 17.514 19 17.5325ZM19 8.225C19.5076 8.24333 20.0065 8.3591 20.4679 8.56567C20.9294 8.77224 21.3443 9.06552 21.6889 9.42865C22.0335 9.79178 22.3009 10.2176 22.4757 10.6816C22.6505 11.1456 22.7294 11.6387 22.7077 12.1325C22.7283 12.6257 22.6487 13.1179 22.4734 13.5811C22.2981 14.0442 22.0305 14.4692 21.6861 14.8315C21.3416 15.1938 20.927 15.4864 20.4661 15.6925C20.0051 15.8986 19.5069 16.0141 19 16.0325C18.4931 16.0141 17.9949 15.8986 17.5339 15.6925C17.073 15.4864 16.6584 15.1938 16.3139 14.8315C15.9695 14.4692 15.7019 14.0442 15.5266 13.5811C15.3513 13.1179 15.2717 12.6257 15.2923 12.1325C15.2706 11.6387 15.3495 11.1456 15.5243 10.6816C15.6991 10.2176 15.9665 9.79178 16.3111 9.42865C16.6557 9.06552 17.0706 8.77224 17.5321 8.56567C17.9935 8.3591 18.4924 8.24333 19 8.225Z" fill="#E75A7C"/>
<path d="M19 0.5C15.3411 0.5 11.7643 1.55568 8.72196 3.53355C5.67965 5.51141 3.30846 8.32263 1.90824 11.6117C0.508016 14.9008 0.141654 18.52 0.855481 22.0116C1.56931 25.5033 3.33126 28.7106 5.91853 31.2279C8.5058 33.7453 11.8022 35.4596 15.3908 36.1541C18.9795 36.8487 22.6992 36.4922 26.0796 35.1298C29.4601 33.7674 32.3494 31.4603 34.3822 28.5003C36.415 25.5402 37.5 22.0601 37.5 18.5C37.5 13.7261 35.5509 9.14773 32.0815 5.77208C28.6121 2.39642 23.9065 0.5 19 0.5ZM19 35C15.646 35 12.3672 34.0323 9.57846 32.2192C6.78968 30.4062 4.61609 27.8293 3.33255 24.8143C2.04901 21.7993 1.71318 18.4817 2.36752 15.281C3.02186 12.0803 4.63699 9.1403 7.00865 6.83274C9.38032 4.52517 12.402 2.9537 15.6916 2.31704C18.9812 1.68039 22.3909 2.00714 25.4897 3.25599C28.5884 4.50483 31.2369 6.61968 33.1003 9.33309C34.9637 12.0465 35.9583 15.2366 35.9583 18.5C35.9583 22.8761 34.1717 27.0729 30.9914 30.1673C27.8111 33.2616 23.4976 35 19 35Z" stroke="#E75A7C"/>
<path d="M19 18.8075C16.3423 18.8075 13.7935 19.8347 11.9142 21.6632C10.0349 23.4917 8.97918 25.9716 8.97918 28.5575C8.97918 28.7564 9.06039 28.9472 9.20495 29.0878C9.34951 29.2285 9.54557 29.3075 9.75001 29.3075C9.95445 29.3075 10.1505 29.2285 10.2951 29.0878C10.4396 28.9472 10.5208 28.7564 10.5208 28.5575C10.5208 26.3695 11.4142 24.271 13.0043 22.7239C14.5945 21.1767 16.7512 20.3075 19 20.3075C21.2488 20.3075 23.4055 21.1767 24.9957 22.7239C26.5858 24.271 27.4792 26.3695 27.4792 28.5575C27.4792 28.7564 27.5604 28.9472 27.7049 29.0878C27.8495 29.2285 28.0456 29.3075 28.25 29.3075C28.4544 29.3075 28.6505 29.2285 28.7951 29.0878C28.9396 28.9472 29.0208 28.7564 29.0208 28.5575C29.0208 27.2771 28.7616 26.0093 28.258 24.8263C27.7545 23.6434 27.0163 22.5686 26.0858 21.6632C25.1553 20.7578 24.0506 20.0397 22.8348 19.5497C21.619 19.0597 20.316 18.8075 19 18.8075Z" stroke="#E75A7C"/>
<path d="M19 17.5325C19.7093 17.514 20.408 17.3596 21.0559 17.0781C21.7038 16.7966 22.2883 16.3935 22.7759 15.8919C23.2635 15.3904 23.6447 14.8001 23.8975 14.155C24.1503 13.5099 24.2699 12.8226 24.2494 12.1325C24.2709 11.4418 24.1521 10.7537 23.8998 10.1077C23.6474 9.46173 23.2664 8.87059 22.7787 8.3682C22.291 7.86581 21.7062 7.46204 21.0577 7.18006C20.4093 6.89808 19.71 6.74344 19 6.725C18.29 6.74344 17.5907 6.89808 16.9423 7.18006C16.2938 7.46204 15.709 7.86581 15.2213 8.3682C14.7336 8.87059 14.3526 9.46173 14.1002 10.1077C13.8479 10.7537 13.7291 11.4418 13.7506 12.1325C13.7301 12.8226 13.8497 13.5099 14.1025 14.155C14.3553 14.8001 14.7365 15.3904 15.2241 15.8919C15.7117 16.3935 16.2962 16.7966 16.9441 17.0781C17.592 17.3596 18.2907 17.514 19 17.5325ZM19 8.225C19.5076 8.24333 20.0065 8.3591 20.4679 8.56567C20.9294 8.77224 21.3443 9.06552 21.6889 9.42865C22.0335 9.79178 22.3009 10.2176 22.4757 10.6816C22.6505 11.1456 22.7294 11.6387 22.7077 12.1325C22.7283 12.6257 22.6487 13.1179 22.4734 13.5811C22.2981 14.0442 22.0305 14.4692 21.6861 14.8315C21.3416 15.1938 20.927 15.4864 20.4661 15.6925C20.0051 15.8986 19.5069 16.0141 19 16.0325C18.4931 16.0141 17.9949 15.8986 17.5339 15.6925C17.073 15.4864 16.6584 15.1938 16.3139 14.8315C15.9695 14.4692 15.7019 14.0442 15.5266 13.5811C15.3513 13.1179 15.2717 12.6257 15.2923 12.1325C15.2706 11.6387 15.3495 11.1456 15.5243 10.6816C15.6991 10.2176 15.9665 9.79178 16.3111 9.42865C16.6557 9.06552 17.0706 8.77224 17.5321 8.56567C17.9935 8.3591 18.4924 8.24333 19 8.225Z" stroke="#E75A7C"/>
</svg>
