<svg width="53" height="50" viewBox="0 0 53 50" fill="none" xmlns="http://www.w3.org/2000/svg">
<path d="M26.3147 49.936C40.8478 49.936 52.6293 38.7574 52.6293 24.968C52.6293 11.1785 40.8478 0 26.3147 0C11.7815 0 0 11.1785 0 24.968C0 38.7574 11.7815 49.936 26.3147 49.936Z" fill="#4D76A1"/>
<path fill-rule="evenodd" clip-rule="evenodd" d="M25.3208 35.9187H27.3862C27.3862 35.9187 28.0101 35.8537 28.3286 35.5279C28.6218 35.2288 28.6124 34.6671 28.6124 34.6671C28.6124 34.6671 28.572 32.0376 29.8583 31.6504C31.1262 31.2689 32.7544 34.1918 34.4801 35.3156C35.7851 36.1661 36.7768 35.9796 36.7768 35.9796L41.3912 35.9187C41.3912 35.9187 43.8051 35.7776 42.6605 33.9768C42.5667 33.8295 41.9939 32.6447 39.2296 30.2101C36.3363 27.662 36.7238 28.0742 40.2091 23.6666C42.3317 20.9823 43.1802 19.3435 42.9152 18.6416C42.6624 17.9731 41.1013 18.1498 41.1013 18.1498L35.9057 18.1805C35.9057 18.1805 35.5206 18.1307 35.2349 18.2927C34.9558 18.4516 34.7761 18.8219 34.7761 18.8219C34.7761 18.8219 33.9538 20.8991 32.8571 22.6656C30.5436 26.3931 29.6186 26.5898 29.2405 26.3584C28.3609 25.819 28.5805 24.1913 28.5805 23.035C28.5805 19.4228 29.1579 17.9166 27.4561 17.5267C26.8913 17.3972 26.4757 17.3117 25.0314 17.298C23.1776 17.2797 21.6085 17.3033 20.72 17.7163C20.129 17.9909 19.673 18.6029 19.9507 18.6381C20.2941 18.6817 21.0719 18.837 21.4842 19.3698C22.0166 20.057 21.9978 21.6005 21.9978 21.6005C21.9978 21.6005 22.3037 25.8528 21.2834 26.3811C20.5831 26.7434 19.6224 26.0037 17.5598 22.622C16.503 20.8897 15.7051 18.975 15.7051 18.975C15.7051 18.975 15.5512 18.6172 15.2768 18.4258C14.9437 18.1939 14.4784 18.12 14.4784 18.12L9.5413 18.1507C9.5413 18.1507 8.80015 18.1703 8.52808 18.4761C8.28604 18.748 8.50885 19.3106 8.50885 19.3106C8.50885 19.3106 12.3741 27.8908 16.7507 32.2147C20.7637 36.179 25.3208 35.9187 25.3208 35.9187Z" fill="white"/>
</svg>
