<svg width="61" height="59" viewBox="0 0 61 59" fill="none" xmlns="http://www.w3.org/2000/svg">
<path d="M16.143 10.6118C16.143 17.5547 16.143 24.514 16.143 31.457C16.143 39.8994 16.143 48.3417 16.143 56.7678C16.143 57.0123 16.143 57.2568 16.143 57.5012C16.5656 57.0938 16.9882 56.6863 17.4108 56.2789C12.0354 56.2789 6.64315 56.2789 1.26778 56.2789C1.69037 56.6863 2.11296 57.0938 2.53555 57.5012C2.53555 50.5583 2.53555 43.599 2.53555 36.656C2.53555 28.2137 2.53555 19.7713 2.53555 11.3452C2.53555 11.1007 2.53555 10.8562 2.53555 10.6118C2.53555 9.03086 0 9.03086 0 10.6118C0 17.5547 0 24.514 0 31.457C0 39.8994 0 48.3417 0 56.7678C0 57.0123 0 57.2568 0 57.5012C0 58.1695 0.574726 58.7236 1.26778 58.7236C6.64315 58.7236 12.0354 58.7236 17.4108 58.7236C18.1039 58.7236 18.6786 58.1695 18.6786 57.5012C18.6786 50.5583 18.6786 43.599 18.6786 36.656C18.6786 28.2137 18.6786 19.7713 18.6786 11.3452C18.6786 11.1007 18.6786 10.8562 18.6786 10.6118C18.6786 9.03086 16.143 9.03086 16.143 10.6118Z" fill="#253052"/>
<path d="M18.3067 9.74797C15.6191 6.63505 12.9314 3.52212 10.2268 0.409193C9.17875 -0.796862 7.38696 0.930732 8.43499 2.13679C11.1227 5.24971 13.8104 8.36264 16.515 11.4756C17.563 12.6816 19.3379 10.9377 18.3067 9.74797Z" fill="#253052"/>
<path d="M2.16401 11.4756C4.8517 8.36264 7.53938 5.24971 10.2271 2.13679C11.2582 0.930732 9.48331 -0.796862 8.43528 0.409193C5.74759 3.52212 3.05991 6.63505 0.355313 9.74797C-0.675812 10.9377 1.11598 12.6816 2.16401 11.4756Z" fill="#253052"/>
<path d="M37.2724 10.6118C37.2724 17.5547 37.2724 24.514 37.2724 31.457C37.2724 39.8994 37.2724 48.3417 37.2724 56.7678C37.2724 57.0123 37.2724 57.2568 37.2724 57.5012C37.695 57.0938 38.1176 56.6863 38.5402 56.2789C33.1648 56.2789 27.7725 56.2789 22.3972 56.2789C22.8198 56.6863 23.2424 57.0938 23.6649 57.5012C23.6649 50.5583 23.6649 43.599 23.6649 36.656C23.6649 28.2137 23.6649 19.7713 23.6649 11.3452C23.6649 11.1007 23.6649 10.8562 23.6649 10.6118C23.6649 9.03086 21.1294 9.03086 21.1294 10.6118C21.1294 17.5547 21.1294 24.514 21.1294 31.457C21.1294 39.8994 21.1294 48.3417 21.1294 56.7678C21.1294 57.0123 21.1294 57.2568 21.1294 57.5012C21.1294 58.1695 21.7041 58.7236 22.3972 58.7236C27.7725 58.7236 33.1648 58.7236 38.5402 58.7236C39.2333 58.7236 39.808 58.1695 39.808 57.5012C39.808 50.5583 39.808 43.599 39.808 36.656C39.808 28.2137 39.808 19.7713 39.808 11.3452C39.808 11.1007 39.808 10.8562 39.808 10.6118C39.808 9.03086 37.2724 9.03086 37.2724 10.6118Z" fill="#253052"/>
<path d="M39.4361 9.74797C36.7485 6.63505 34.0608 3.52212 31.3562 0.409193C30.3081 -0.796862 28.5164 0.930732 29.5644 2.13679C32.2521 5.24971 34.9398 8.36264 37.6444 11.4756C38.6924 12.6816 40.4673 10.9377 39.4361 9.74797Z" fill="#253052"/>
<path d="M23.2932 11.4756C25.9809 8.36264 28.6686 5.24971 31.3732 2.13679C32.4043 0.930732 30.6294 -0.796862 29.5814 0.409193C26.8937 3.52212 24.206 6.63505 21.5014 9.74797C20.4534 10.9377 22.2452 12.6816 23.2932 11.4756Z" fill="#253052"/>
<path d="M58.4023 10.6118C58.4023 17.5547 58.4023 24.514 58.4023 31.457C58.4023 39.8994 58.4023 48.3417 58.4023 56.7678C58.4023 57.0123 58.4023 57.2568 58.4023 57.5012C58.8249 57.0938 59.2475 56.6863 59.6701 56.2789C54.2947 56.2789 48.9024 56.2789 43.5271 56.2789C43.9496 56.6863 44.3722 57.0938 44.7948 57.5012C44.7948 50.5583 44.7948 43.599 44.7948 36.656C44.7948 28.2137 44.7948 19.7713 44.7948 11.3452C44.7948 11.1007 44.7948 10.8562 44.7948 10.6118C44.7948 9.03086 42.2593 9.03086 42.2593 10.6118C42.2593 17.5547 42.2593 24.514 42.2593 31.457C42.2593 39.8994 42.2593 48.3417 42.2593 56.7678C42.2593 57.0123 42.2593 57.2568 42.2593 57.5012C42.2593 58.1695 42.834 58.7236 43.5271 58.7236C48.9024 58.7236 54.2947 58.7236 59.6701 58.7236C60.3631 58.7236 60.9379 58.1695 60.9379 57.5012C60.9379 50.5583 60.9379 43.599 60.9379 36.656C60.9379 28.2137 60.9379 19.7713 60.9379 11.3452C60.9379 11.1007 60.9379 10.8562 60.9379 10.6118C60.9379 9.03086 58.4023 9.03086 58.4023 10.6118Z" fill="#253052"/>
<path d="M60.5658 9.74797C57.8781 6.63505 55.1904 3.52212 52.4858 0.409193C51.4378 -0.796862 49.646 0.930732 50.694 2.13679C53.3817 5.24971 56.0694 8.36264 58.774 11.4756C59.822 12.6816 61.5969 10.9377 60.5658 9.74797Z" fill="#253052"/>
<path d="M44.4066 11.4756C47.0943 8.36264 49.782 5.24971 52.4866 2.13679C53.5177 0.930732 51.7428 -0.796862 50.6948 0.409193C48.0071 3.52212 45.3194 6.63505 42.6148 9.74797C41.5837 10.9377 43.3586 12.6816 44.4066 11.4756Z" fill="#253052"/>
<path d="M43.51 15.7782C41.8534 15.7782 40.1969 15.7782 38.5403 15.7782C36.9006 15.7782 36.9006 18.2229 38.5403 18.2229C40.1969 18.2229 41.8534 18.2229 43.51 18.2229C45.1496 18.2229 45.1496 15.7782 43.51 15.7782Z" fill="#253052"/>
<path d="M43.51 21.8248C41.8534 21.8248 40.1969 21.8248 38.5403 21.8248C36.9006 21.8248 36.9006 24.2695 38.5403 24.2695C40.1969 24.2695 41.8534 24.2695 43.51 24.2695C45.1496 24.2695 45.1496 21.8248 43.51 21.8248Z" fill="#253052"/>
<path d="M22.3803 21.8248C20.7237 21.8248 19.0672 21.8248 17.4106 21.8248C17.8332 22.2323 18.2558 22.6397 18.6784 23.0472C18.6784 21.0425 18.6784 19.0216 18.6784 17.0169C18.2558 17.4244 17.8332 17.8318 17.4106 18.2393C19.0672 18.2393 20.7237 18.2393 22.3803 18.2393C24.0199 18.2393 24.0199 15.7946 22.3803 15.7946C20.7237 15.7946 19.0672 15.7946 17.4106 15.7946C16.7175 15.7946 16.1428 16.3487 16.1428 17.0169C16.1428 19.0216 16.1428 21.0425 16.1428 23.0472C16.1428 23.7154 16.7175 24.2695 17.4106 24.2695C19.0672 24.2695 20.7237 24.2695 22.3803 24.2695C24.0199 24.2695 24.0199 21.8248 22.3803 21.8248Z" fill="#253052"/>
<path d="M43.51 47.5106C41.8534 47.5106 40.1969 47.5106 38.5403 47.5106C36.9006 47.5106 36.9006 49.9553 38.5403 49.9553C40.1969 49.9553 41.8534 49.9553 43.51 49.9553C45.1496 49.9553 45.1496 47.5106 43.51 47.5106Z" fill="#253052"/>
<path d="M43.51 41.4804C41.8534 41.4804 40.1969 41.4804 38.5403 41.4804C36.9006 41.4804 36.9006 43.9251 38.5403 43.9251C40.1969 43.9251 41.8534 43.9251 43.51 43.9251C45.1496 43.9251 45.1496 41.4804 43.51 41.4804Z" fill="#253052"/>
<path d="M22.3803 47.5107C20.7237 47.5107 19.0672 47.5107 17.4106 47.5107C17.8332 47.9181 18.2558 48.3256 18.6784 48.733C18.6784 46.7284 18.6784 44.7074 18.6784 42.7028C18.2558 43.1102 17.8332 43.5177 17.4106 43.9251C19.0672 43.9251 20.7237 43.9251 22.3803 43.9251C24.0199 43.9251 24.0199 41.4804 22.3803 41.4804C20.7237 41.4804 19.0672 41.4804 17.4106 41.4804C16.7175 41.4804 16.1428 42.0345 16.1428 42.7028C16.1428 44.7074 16.1428 46.7284 16.1428 48.733C16.1428 49.4013 16.7175 49.9554 17.4106 49.9554C19.0672 49.9554 20.7237 49.9554 22.3803 49.9554C24.0199 49.9554 24.0199 47.5107 22.3803 47.5107Z" fill="#253052"/>
<path d="M10.8859 20.4882C10.8014 22.4114 7.87708 22.4114 7.79256 20.4882C7.70804 18.5487 10.8014 18.565 10.8859 20.4882C10.9535 22.0528 13.4891 22.0691 13.4215 20.4882C13.337 18.288 11.6297 16.6419 9.33079 16.5441C7.0488 16.4626 5.34152 18.4184 5.2401 20.4882C5.15558 22.6884 7.18403 24.3346 9.33079 24.4323C11.6128 24.5138 13.3201 22.5581 13.4215 20.4882C13.4891 18.9073 10.9535 18.9073 10.8859 20.4882Z" fill="#253052"/>
<path d="M10.8859 47.8038C10.8014 49.727 7.87702 49.727 7.7925 47.8038C7.70798 45.8644 10.8014 45.8807 10.8859 47.8038C10.9535 49.3684 13.489 49.3847 13.4214 47.8038C13.3369 45.6036 11.6296 43.9575 9.33074 43.8597C7.04874 43.7782 5.34146 45.734 5.25695 47.8038C5.17243 50.0041 7.20087 51.6502 9.34764 51.748C11.6296 51.8294 13.3369 49.8737 13.4383 47.8038C13.489 46.2229 10.9535 46.2229 10.8859 47.8038Z" fill="#253052"/>
<path d="M32.0153 20.4882C31.9308 22.4114 29.0065 22.4114 28.922 20.4882C28.8374 18.5487 31.9308 18.565 32.0153 20.4882C32.0829 22.0528 34.6185 22.0691 34.5509 20.4882C34.4664 18.288 32.7591 16.6419 30.4602 16.5441C28.1782 16.4626 26.4709 18.4184 26.3695 20.4882C26.285 22.6884 28.3134 24.3346 30.4602 24.4323C32.7422 24.5138 34.4495 22.5581 34.5509 20.4882C34.6185 18.9073 32.0829 18.9073 32.0153 20.4882Z" fill="#253052"/>
<path d="M32.0153 47.8038C31.9308 49.727 29.0065 49.727 28.922 47.8038C28.8374 45.8644 31.9308 45.8807 32.0153 47.8038C32.0829 49.3684 34.6185 49.3847 34.5509 47.8038C34.4664 45.6036 32.7591 43.9575 30.4602 43.8597C28.1782 43.7782 26.4709 45.734 26.3695 47.8038C26.285 50.0041 28.3134 51.6502 30.4602 51.748C32.7422 51.8294 34.4495 49.8737 34.5509 47.8038C34.6185 46.2229 32.0829 46.2229 32.0153 47.8038Z" fill="#253052"/>
<path d="M53.1452 20.4882C53.0607 22.4114 50.1364 22.4114 50.0518 20.4882C49.9673 18.5487 53.0607 18.565 53.1452 20.4882C53.2128 22.0528 55.7484 22.0691 55.6808 20.4882C55.5963 18.288 53.889 16.6419 51.5901 16.5441C49.3081 16.4626 47.6008 18.4184 47.4994 20.4882C47.4149 22.6884 49.4433 24.3346 51.5901 24.4323C53.8721 24.5138 55.5793 22.5581 55.6808 20.4882C55.7315 18.9073 53.1959 18.9073 53.1452 20.4882Z" fill="#253052"/>
<path d="M53.1452 47.8038C53.0607 49.727 50.1364 49.727 50.0518 47.8038C49.9673 45.8644 53.0607 45.8807 53.1452 47.8038C53.2128 49.3684 55.7484 49.3847 55.6808 47.8038C55.5963 45.6036 53.889 43.9575 51.5901 43.8597C49.3081 43.7782 47.6008 45.734 47.4994 47.8038C47.4149 50.0041 49.4433 51.6502 51.5901 51.748C53.8721 51.8294 55.5793 49.8737 55.6808 47.8038C55.7315 46.2229 53.1959 46.2229 53.1452 47.8038Z" fill="#253052"/>
</svg>
